<svg width="300" height="100" viewBox="0 0 300 100" fill="none" xmlns="http://www.w3.org/2000/svg">
<path d="M0 10.13H15.76L47.4 77.96L80.67 10.13H96.31L57.7 86.6C55.68 90.61 51.57 93.13 47.08 93.13C42.49 93.13 38.32 90.49 36.34 86.35L0 10.13Z" fill="white"/>
<path d="M129.68 7.91H143.45V26.47H172.75V38.85H143.45V80.41H172.75V93.14H160.02C152.32 93.14 146.36 92.09 141.93 90.22C133.06 86.13 129.67 77.26 129.67 61.5V7.91H129.68Z" fill="white"/>
<path d="M244.9 85.2C237.55 91.5 226.92 95.36 212.33 95.36C193.42 95.36 184.66 88.82 184.66 76.8V76.68C184.66 69.44 187.81 64.19 194.12 60.8C196.34 59.52 198.79 58.46 201.59 57.65C207.19 55.9 215.72 54.73 229.96 53.91C235.8 53.56 240.23 53.09 243.5 52.63C250.04 51.7 252.49 49.83 252.49 46.09V45.97C252.49 44.1 251.79 42.35 250.39 40.6C247.71 37.21 241.4 34.65 229.61 34.65C209.88 34.65 202.52 39.55 201.12 50.18H186.18C188.4 32.08 202.52 23.91 228.44 23.91C254.24 23.91 266.38 31.38 266.38 49.24V93.13H254.47L253.07 74.8C251.21 78.66 248.52 82.05 244.9 85.2ZM242.8 76.91C249.22 72.01 252.72 66.05 252.72 60.22V57.42C250.5 60.34 244.9 62.09 231.24 62.91C215.95 63.73 208.83 65.01 204.74 67.7C201.59 69.57 200.07 72.25 200.07 75.52V75.64C200.07 81.24 204.39 84.86 216.3 84.86C227.39 84.85 236.38 81.81 242.8 76.91Z" fill="white"/>
<path d="M285.41 4.64001H300V93.13H285.41V4.64001Z" fill="white"/>
<path d="M117.23 26.48H104.85V38.86H117.23V26.48Z" fill="#F1FF00"/>
</svg>
